<svg id="Capa_1" enable-background="new 0 0 512 512" height="512" viewBox="0 0 512 512" width="512" xmlns="http://www.w3.org/2000/svg"><g><path d="m489.512 143.991h-96.806v-26.861h47.055c9.644 0 17.491-7.846 17.491-17.491v-45.226c0-9.644-7.846-17.491-17.491-17.491h-110.25c-9.644 0-17.491 7.846-17.491 17.491v45.226c0 9.644 7.846 17.491 17.491 17.491h48.202v26.861h-37.841c-4.14 0-7.496 3.356-7.496 7.496s3.356 7.496 7.496 7.496h149.639c4.134 0 7.496 3.362 7.496 7.496v26.982h-52.033c-4.142 0-7.5 3.358-7.5 7.5s3.358 7.5 7.5 7.5h52.033v16.647h-19.094c-4.142 0-7.5 3.358-7.5 7.5s3.358 7.5 7.5 7.5h19.094v69.545c0 4.134-3.362 7.496-7.496 7.496h-6.255c-3.184-31.825-16.933-62.782-41.26-87.109-55.981-55.982-147.069-55.983-203.05 0-55.981 55.981-55.981 147.069 0 203.05 27.99 27.991 64.758 41.986 101.525 41.986 22.728 0 45.454-5.355 66.109-16.051 26.093-13.472 47.849-35.224 61.331-61.311 10.62-20.491 15.975-43.023 16.065-65.573h5.536c12.4 0 22.488-10.088 22.488-22.488v-143.173c0-12.401-10.088-22.489-22.488-22.489zm-64.417-92.077h14.666c1.378 0 2.499 1.121 2.499 2.499v14.832h-17.164v-17.331zm0 32.323h17.164v15.403c0 1.378-1.121 2.499-2.499 2.499h-14.666v-17.902zm-32.39-32.323h17.397v17.33h-17.397zm0 32.323h17.397v17.901h-17.397zm-47.381 17.901h-15.813c-1.378 0-2.499-1.121-2.499-2.499v-15.402h18.312zm0-32.893h-18.312v-14.832c0-1.378 1.121-2.499 2.499-2.499h15.813zm32.389 32.893h-17.397v-17.901h17.397zm0-32.893h-17.397v-17.33h17.397zm-38.207 133.808c.322-.002.643-.011.965-.011 21.908 0 43.812 5.555 63.405 16.651-.274 1.3-1.246 2.372-2.539 2.712l-33.183 8.892c-1.206.321-2.501-.024-3.383-.906l-24.292-24.292c-.8-.801-1.155-1.942-.973-3.046zm-49.659 10.317c11.13-4.751 22.797-7.862 34.632-9.333.111 4.693 1.998 9.261 5.399 12.663l24.293 24.293c3.507 3.506 8.253 5.412 13.101 5.412 1.589 0 3.191-.205 4.762-.626l33.183-8.892c4.905-1.314 9-4.598 11.402-8.946 5.164 3.8 10.107 8.033 14.777 12.703 4.288 4.288 8.2 8.811 11.755 13.52-4.448 2.386-7.814 6.53-9.147 11.509 0 0-9.216 34.588-9.319 35.294l-37.945 9.874c-1.17-2.006-2.598-3.881-4.277-5.561l-16.95-16.951c-1.568-1.568-3.309-2.908-5.165-4.032l2.085-8.011c1.042-4.007-1.36-8.1-5.367-9.142-4.004-1.043-8.099 1.36-9.142 5.367l-2.025 7.782c-2.316.012-4.647.31-6.936.923l-23.153 6.204c-2.145.575-4.18 1.414-6.085 2.461l-27.144-27.144c.201-.54 9.428-34.834 9.428-34.834 1.333-4.977.493-10.244-2.162-14.533zm85.247 114.578-6.204 23.154c-1.151 4.298-4.536 7.683-8.834 8.834l-23.154 6.205c-4.299 1.152-8.922-.088-12.067-3.234l-16.95-16.95c-3.146-3.146-4.385-7.77-3.233-12.068l6.204-23.154c1.151-4.298 4.536-7.682 8.834-8.834l23.153-6.204c4.255-1.149 8.92.076 12.068 3.233l16.95 16.95c3.146 3.146 4.385 7.771 3.233 12.068zm-125.546-87.305c8.138-8.138 17.108-14.946 26.633-20.442 1.112.931 1.758 2.383 1.346 3.822l-8.891 33.183c-.323 1.204-1.271 2.153-2.476 2.476l-33.183 8.892c-1.446.412-2.903-.242-3.836-1.36 5.49-9.503 12.286-18.451 20.407-26.571zm-27.243 40.228c2.94 1.826 6.335 2.81 9.79 2.81 1.59 0 3.191-.205 4.763-.626 0 0 34.58-9.319 35.252-9.588l26.928 26.927c-1.146 2.01-2.051 4.174-2.663 6.46l-6.204 23.154c-.594 2.218-.888 4.475-.918 6.72l-38.368 9.984c-.365-.441-25.445-25.574-25.445-25.574-3.366-3.367-7.876-5.249-12.519-5.395 1.463-11.917 4.593-23.667 9.384-34.872zm6.363 114.203-.01.003c-11.275-19.865-16.843-42.113-16.702-64.335 1.053-.121 2.121.238 2.881.999l24.293 24.293c.881.881 1.228 2.177.905 3.382l-8.891 33.183c-.323 1.203-1.272 2.152-2.476 2.475zm34.345 39.131c-4.689-3.544-9.194-7.442-13.465-11.714-4.653-4.653-8.872-9.578-12.662-14.723 4.246-2.417 7.446-6.463 8.74-11.29 0 0 9.221-34.612 9.325-35.332l38.186-9.937c1.147 1.925 2.527 3.728 4.147 5.348l16.95 16.95c1.732 1.732 3.67 3.195 5.747 4.384l-9.887 37.996c-.837.104-35.682 9.376-35.682 9.376-4.903 1.315-8.996 4.597-11.399 8.942zm76.867 25.881c-22.221-.101-44.419-5.912-64.182-17.43.255-1.373 1.216-2.558 2.592-2.911l33.184-8.891c1.206-.324 2.5.024 3.382.906l24.293 24.293c1.094 1.053 1.236 2.657.731 4.033zm48.641-17.685c.347 2.594 1.249 5.097 2.639 7.336-11.563 4.943-23.708 8.115-36.019 9.517.194-5.089-1.714-10.128-5.39-13.803 0 0-24.952-24.923-25.296-25.219l10.072-38.707c2.092-.063 4.191-.351 6.256-.904l23.154-6.204c2.285-.612 4.45-1.518 6.46-2.663l28.174 28.174c-.269.672-9.587 35.253-9.587 35.253-.64 2.386-.782 4.84-.463 7.22zm59.303-40.03c-4.08 6.166-8.688 11.978-13.758 17.361-6.939 7.366-14.748 13.918-23.214 19.461-1.982 1.297-3.993 2.529-6.028 3.705-1.117-.934-1.775-2.39-1.36-3.836l8.891-33.184c.323-1.204 1.271-2.153 2.476-2.475l33.184-8.892c1.423-.408 2.9.245 3.822 1.346-1.267 2.202-2.609 4.375-4.013 6.514zm10.844-20.179c-4.289-2.655-9.557-3.495-14.533-2.162 0 0-34.293 9.228-34.833 9.429l-28.391-28.391c1.047-1.905 1.886-3.939 2.461-6.085l6.204-23.154c.572-2.136.862-4.308.91-6.472l38.234-9.949c.372.452 25.471 25.605 25.471 25.605 3.507 3.506 8.254 5.412 13.1 5.412.283 0 .567-.014.85-.028-1.408 12.233-4.567 24.301-9.473 35.795zm9.505-50.875c-1.203.324-2.5-.024-3.382-.906l-24.292-24.292c-.882-.882-1.229-2.178-.906-3.382l8.892-33.185c.366-1.478 1.69-2.401 3.137-2.652 11.498 19.772 17.289 41.975 17.37 64.198z"/><path d="m166.575 317.151h-.352v-27.827c0-35.389-28.791-64.179-64.179-64.179-7.492 0-14.834 1.281-21.822 3.807-3.893 1.407-5.909 5.705-4.501 9.598 1.407 3.893 5.705 5.907 9.598 4.501 5.349-1.934 10.976-2.914 16.725-2.914 27.122 0 49.187 22.065 49.187 49.187v27.827h-98.375v-27.827c0-10.221 3.103-20.018 8.975-28.334 2.387-3.382 1.582-8.059-1.8-10.447-3.382-2.386-8.058-1.582-10.447 1.8-7.667 10.859-11.719 23.646-11.719 36.981v27.827h-15.377c-4.134 0-7.496-3.362-7.496-7.496v-69.545h18.867c4.142 0 7.5-3.358 7.5-7.5s-3.358-7.5-7.5-7.5h-18.867v-16.647h219.889c4.142 0 7.5-3.358 7.5-7.5s-3.358-7.5-7.5-7.5h-219.889v-26.983c0-4.134 3.362-7.496 7.496-7.496h280.604c4.14 0 7.496-3.356 7.496-7.496s-3.356-7.496-7.496-7.496h-165.446v-26.862h47.055c9.644 0 17.491-7.846 17.491-17.491v-45.226c0-9.644-7.846-17.491-17.491-17.491h-111.249c-9.644 0-17.491 7.846-17.491 17.491v45.226c0 9.644 7.846 17.491 17.491 17.491h49.202v26.861h-100.166c-12.4 0-22.488 10.088-22.488 22.489v143.175c0 12.4 10.088 22.488 22.488 22.488h144.087c4.14 0 7.496-3.356 7.496-7.496s-3.356-7.496-7.496-7.496zm3.461-265.237h14.665c1.378 0 2.499 1.121 2.499 2.499v14.832h-17.164zm0 32.323h17.164v15.403c0 1.378-1.121 2.499-2.499 2.499h-14.665zm-32.39-32.323h17.397v17.33h-17.397zm0 32.323h17.397v17.901h-17.397zm-33.388-32.323h18.397v17.33h-18.397zm-14.993 50.224h-15.813c-1.378 0-2.499-1.121-2.499-2.499v-15.402h18.312zm0-32.893h-18.311v-14.832c0-1.378 1.121-2.499 2.499-2.499h15.813v17.331zm14.993 32.893v-17.901h18.397v17.901z"/><path d="m202.997 232.609c0-4.142-3.358-7.5-7.5-7.5h-22.146c-4.142 0-7.5 3.358-7.5 7.5s3.358 7.5 7.5 7.5h22.146c4.143 0 7.5-3.357 7.5-7.5z"/></g></svg>